<svg width="37" height="37" viewBox="0 0 37 37" fill="none" xmlns="http://www.w3.org/2000/svg">
<path d="M35.4577 29.2917C35.4577 30.1094 35.1328 30.8937 34.5546 31.4719C33.9764 32.0501 33.1921 32.375 32.3743 32.375H4.62435C3.8066 32.375 3.02234 32.0501 2.4441 31.4719C1.86587 30.8937 1.54102 30.1094 1.54102 29.2917V12.3333C1.54102 11.5156 1.86587 10.7313 2.4441 10.1531C3.02234 9.57485 3.8066 9.25 4.62435 9.25H10.791L13.8743 4.625H23.1243L26.2077 9.25H32.3743C33.1921 9.25 33.9764 9.57485 34.5546 10.1531C35.1328 10.7313 35.4577 11.5156 35.4577 12.3333V29.2917Z" stroke="#1F8CF4" stroke-width="2" stroke-linecap="round" stroke-linejoin="round"/>
<path d="M18.5007 26.2083C21.9064 26.2083 24.6673 23.4474 24.6673 20.0417C24.6673 16.6359 21.9064 13.875 18.5007 13.875C15.0949 13.875 12.334 16.6359 12.334 20.0417C12.334 23.4474 15.0949 26.2083 18.5007 26.2083Z" stroke="#1F8CF4" stroke-width="2" stroke-linecap="round" stroke-linejoin="round"/>
</svg>
