<svg width="40" height="40" viewBox="0 0 40 40" fill="none" xmlns="http://www.w3.org/2000/svg">
<path fill-rule="evenodd" clip-rule="evenodd" d="M25.5463 16.9424C26.0967 17.4985 26.0967 18.4 25.5463 18.956L21.3842 23.1603C20.1905 24.3662 18.2566 24.3711 17.0568 23.1714L15.5447 21.6593C14.9915 21.1061 14.987 20.2046 15.5346 19.6458C16.0823 19.0869 16.9747 19.0824 17.5279 19.6356L19.04 21.1477C19.1373 21.2449 19.2941 21.2445 19.3909 21.1468L23.553 16.9424C24.1034 16.3864 24.9959 16.3864 25.5463 16.9424Z" fill="#65E500"/>
<path fill-rule="evenodd" clip-rule="evenodd" d="M20 8.08333C13.4186 8.08333 8.08333 13.4186 8.08333 20C8.08333 26.5814 13.4186 31.9167 20 31.9167C26.5814 31.9167 31.9167 26.5814 31.9167 20C31.9167 13.4186 26.5814 8.08333 20 8.08333ZM5.25 20C5.25 11.8538 11.8538 5.25 20 5.25C28.1462 5.25 34.75 11.8538 34.75 20C34.75 28.1462 28.1462 34.75 20 34.75C11.8538 34.75 5.25 28.1462 5.25 20Z" fill="#65E500"/>
</svg>
