<svg width="40" height="40" viewBox="0 0 40 40" fill="none" xmlns="http://www.w3.org/2000/svg">
<circle cx="20" cy="20" r="20" fill="white"/>
<path fill-rule="evenodd" clip-rule="evenodd" d="M20 31.25C13.7868 31.25 8.75 26.2132 8.75 20C8.75 13.7868 13.7868 8.75 20 8.75C26.2132 8.75 31.25 13.7868 31.25 20C31.25 26.2132 26.2132 31.25 20 31.25ZM20 13.9375C20.5868 13.9375 21.0625 14.4132 21.0625 15V18.9375H25C25.5868 18.9375 26.0625 19.4132 26.0625 20C26.0625 20.5868 25.5868 21.0625 25 21.0625H21.0625V25C21.0625 25.5868 20.5868 26.0625 20 26.0625C19.4132 26.0625 18.9375 25.5868 18.9375 25V21.0625H15C14.4132 21.0625 13.9375 20.5868 13.9375 20C13.9375 19.4132 14.4132 18.9375 15 18.9375H18.9375V15C18.9375 14.4132 19.4132 13.9375 20 13.9375Z" fill="#1F8CF4"/>
</svg>
