<svg width="400" height="232" viewBox="0 0 400 232" fill="none" xmlns="http://www.w3.org/2000/svg">
<path d="M0 12C0 5.37258 5.37258 0 12 0H388C394.627 0 400 5.37258 400 12V220C400 226.627 394.627 232 388 232H12C5.37257 232 0 226.627 0 220V12Z" fill="url(#paint0_linear_1677_1951)"/>
<g filter="url(#filter0_d_1677_1951)">
<path fill-rule="evenodd" clip-rule="evenodd" d="M134.666 91.4998C134.666 68.9482 152.948 50.6665 175.499 50.6665H224.499C247.051 50.6665 265.333 68.9482 265.333 91.4998V140.5C265.333 163.051 247.051 181.333 224.499 181.333H175.499C152.948 181.333 134.666 163.051 134.666 140.5V91.4998ZM183.666 99.6665C183.666 104.177 180.01 107.833 175.499 107.833C170.989 107.833 167.333 104.177 167.333 99.6665C167.333 95.1562 170.989 91.4998 175.499 91.4998C180.01 91.4998 183.666 95.1562 183.666 99.6665ZM216.358 107.112C212.285 100.842 203.106 100.842 199.033 107.112L184.879 128.903C180.416 135.775 185.348 144.859 193.542 144.859H221.849C230.043 144.859 234.975 135.775 230.511 128.902L216.358 107.112Z" fill="#1F8CF4"/>
</g>
<defs>
<filter id="filter0_d_1677_1951" x="96" y="18" width="208" height="208" filterUnits="userSpaceOnUse" color-interpolation-filters="sRGB">
<feFlood flood-opacity="0" result="BackgroundImageFix"/>
<feColorMatrix in="SourceAlpha" type="matrix" values="0 0 0 0 0 0 0 0 0 0 0 0 0 0 0 0 0 0 127 0" result="hardAlpha"/>
<feOffset dy="6"/>
<feGaussianBlur stdDeviation="3"/>
<feComposite in2="hardAlpha" operator="out"/>
<feColorMatrix type="matrix" values="0 0 0 0 0 0 0 0 0 0 0 0 0 0 0 0 0 0 0.25 0"/>
<feBlend mode="normal" in2="BackgroundImageFix" result="effect1_dropShadow_1677_1951"/>
<feBlend mode="normal" in="SourceGraphic" in2="effect1_dropShadow_1677_1951" result="shape"/>
</filter>
<linearGradient id="paint0_linear_1677_1951" x1="-9.37987e-06" y1="-11.5" x2="421" y2="246" gradientUnits="userSpaceOnUse">
<stop stop-color="#1F8CF4"/>
<stop offset="1" stop-color="#095FB1"/>
</linearGradient>
</defs>
</svg>
