<svg width="45" height="45" viewBox="0 0 45 45" fill="none" xmlns="http://www.w3.org/2000/svg">
<rect opacity="0.05" width="45" height="45" rx="12" fill="#282828"/>
<path fill-rule="evenodd" clip-rule="evenodd" d="M15.4933 19.189C15.2425 17.4695 16.5757 15.9277 18.3134 15.9277H26.1322C27.87 15.9277 29.2032 17.4695 28.9524 19.189L27.4617 29.4112C27.2575 30.8116 26.0567 31.85 24.6415 31.85H19.8042C18.389 31.85 17.1882 30.8116 16.984 29.4112L15.4933 19.189ZM18.3134 17.6277C17.6123 17.6277 17.0743 18.2498 17.1755 18.9437L18.6662 29.1659C18.7486 29.731 19.2332 30.15 19.8042 30.15H24.6415C25.2125 30.15 25.6971 29.731 25.7795 29.1659L27.2702 18.9437C27.3714 18.2498 26.8334 17.6277 26.1322 17.6277H18.3134Z" fill="#1F8CF4"/>
<path fill-rule="evenodd" clip-rule="evenodd" d="M19.5957 14.0004C19.5957 13.5309 19.9763 13.1504 20.4457 13.1504H24.0013C24.4707 13.1504 24.8513 13.5309 24.8513 14.0004C24.8513 14.4698 24.4707 14.8504 24.0013 14.8504H20.4457C19.9763 14.8504 19.5957 14.4698 19.5957 14.0004Z" fill="#1F8CF4"/>
<path fill-rule="evenodd" clip-rule="evenodd" d="M19.4705 21.5175C19.7985 21.4706 20.1024 21.6985 20.1493 22.0266L21.0382 28.2488C21.0851 28.5768 20.8571 28.8808 20.5291 28.9276C20.201 28.9745 19.8971 28.7466 19.8503 28.4185L18.9614 22.1963C18.9145 21.8683 19.1424 21.5643 19.4705 21.5175Z" fill="#1F8CF4"/>
<path fill-rule="evenodd" clip-rule="evenodd" d="M23.9162 28.9276C23.5882 28.8808 23.3603 28.5768 23.4071 28.2488L24.296 22.0266C24.3429 21.6985 24.6468 21.4706 24.9748 21.5175C25.3029 21.5643 25.5308 21.8682 25.4839 22.1963L24.5951 28.4185C24.5482 28.7465 24.2443 28.9745 23.9162 28.9276Z" fill="#1F8CF4"/>
<path fill-rule="evenodd" clip-rule="evenodd" d="M22.223 28.9336C21.8917 28.9336 21.623 28.665 21.623 28.3336V22.1114C21.623 21.78 21.8917 21.5114 22.223 21.5114C22.5544 21.5114 22.823 21.78 22.823 22.1114V28.3336C22.823 28.665 22.5544 28.9336 22.223 28.9336Z" fill="#1F8CF4"/>
</svg>
