<svg width="49" height="49" viewBox="0 0 49 49" fill="none" xmlns="http://www.w3.org/2000/svg">
<circle cx="24.5" cy="24.5" r="24.5" fill="#1F8CF4" fill-opacity="0.1"/>
<path fill-rule="evenodd" clip-rule="evenodd" d="M22.0004 17.8504C20.813 17.8504 19.8504 18.813 19.8504 20.0004V30.0004C19.8504 31.1878 20.813 32.1504 22.0004 32.1504H28.0004C29.1878 32.1504 30.1504 31.1878 30.1504 30.0004V21.5004C30.1504 20.8237 29.8318 20.1864 29.2904 19.7804L27.2904 18.2804C26.9182 18.0013 26.4656 17.8504 26.0004 17.8504H22.0004ZM18.1504 20.0004C18.1504 17.8741 19.8741 16.1504 22.0004 16.1504H26.0004C26.8334 16.1504 27.644 16.4206 28.3104 16.9204L30.3104 18.4204C31.2798 19.1475 31.8504 20.2886 31.8504 21.5004V30.0004C31.8504 32.1267 30.1267 33.8504 28.0004 33.8504H22.0004C19.8741 33.8504 18.1504 32.1267 18.1504 30.0004V20.0004Z" fill="#1F8CF4"/>
<path fill-rule="evenodd" clip-rule="evenodd" d="M21.3496 26.0006C21.3496 25.6416 21.6406 25.3506 21.9996 25.3506H25.5552C25.9142 25.3506 26.2052 25.6416 26.2052 26.0006C26.2052 26.3596 25.9142 26.6506 25.5552 26.6506H21.9996C21.6406 26.6506 21.3496 26.3596 21.3496 26.0006Z" fill="#1F8CF4"/>
<path fill-rule="evenodd" clip-rule="evenodd" d="M21.3496 29.0006C21.3496 28.6416 21.6406 28.3506 21.9996 28.3506H27.9996C28.3586 28.3506 28.6496 28.6416 28.6496 29.0006C28.6496 29.3596 28.3586 29.6506 27.9996 29.6506H21.9996C21.6406 29.6506 21.3496 29.3596 21.3496 29.0006Z" fill="#1F8CF4"/>
</svg>
