<svg width="119" height="114" viewBox="0 0 119 114" fill="none" xmlns="http://www.w3.org/2000/svg">
<rect opacity="0.1" width="119" height="114" rx="16" fill="#FFD500"/>
<path fill-rule="evenodd" clip-rule="evenodd" d="M52.0009 40.3163C49.2303 40.3163 46.9842 42.5623 46.9842 45.3329V68.6663C46.9842 71.4369 49.2303 73.6829 52.0009 73.6829H66.0009C68.7715 73.6829 71.0176 71.4369 71.0176 68.6663V48.8329C71.0176 47.2539 70.2741 45.767 69.0109 44.8196L64.3442 41.3196C63.4759 40.6683 62.4197 40.3163 61.3342 40.3163H52.0009ZM43.0176 45.3329C43.0176 40.3716 47.0396 36.3496 52.0009 36.3496H61.3342C63.278 36.3496 65.1693 36.98 66.7242 38.1463L71.3909 41.6463C73.653 43.3428 74.9842 46.0054 74.9842 48.8329V68.6663C74.9842 73.6276 70.9623 77.6496 66.0009 77.6496H52.0009C47.0396 77.6496 43.0176 73.6276 43.0176 68.6663V45.3329Z" fill="#282828"/>
<path fill-rule="evenodd" clip-rule="evenodd" d="M50.4844 59.3331C50.4844 58.4954 51.1634 57.8164 52.001 57.8164H60.2973C61.135 57.8164 61.814 58.4954 61.814 59.3331C61.814 60.1707 61.135 60.8497 60.2973 60.8497H52.001C51.1634 60.8497 50.4844 60.1707 50.4844 59.3331Z" fill="#282828"/>
<path fill-rule="evenodd" clip-rule="evenodd" d="M50.4844 66.3331C50.4844 65.4954 51.1634 64.8164 52.001 64.8164H66.001C66.8387 64.8164 67.5177 65.4954 67.5177 66.3331C67.5177 67.1707 66.8387 67.8497 66.001 67.8497H52.001C51.1634 67.8497 50.4844 67.1707 50.4844 66.3331Z" fill="#282828"/>
</svg>
