<svg width="45" height="45" viewBox="0 0 45 45" fill="none" xmlns="http://www.w3.org/2000/svg">
<rect opacity="0.05" width="45" height="45" rx="12" fill="#282828"/>
<path fill-rule="evenodd" clip-rule="evenodd" d="M22.8579 16.2446C24.2092 14.8933 26.4001 14.8933 27.7515 16.2446C29.1028 17.5959 29.1028 19.7868 27.7515 21.1382L19.765 29.1246C19.2403 29.6493 18.5318 29.9486 17.7899 29.9591L15.886 29.9859C14.844 30.0006 13.9955 29.1521 14.0101 28.11L14.037 26.2062C14.0474 25.4643 14.3468 24.7557 14.8714 24.2311L22.8579 16.2446ZM26.5494 17.4467C25.862 16.7593 24.7474 16.7593 24.06 17.4467L16.0735 25.4332C15.8618 25.6449 15.741 25.9308 15.7368 26.2301L15.71 28.134C15.7088 28.2185 15.7776 28.2873 15.8621 28.2861L17.7659 28.2593C18.0653 28.255 18.3512 28.1342 18.5629 27.9225L26.5494 19.9361C27.2368 19.2487 27.2368 18.1341 26.5494 17.4467Z" fill="#1F8CF4"/>
<path fill-rule="evenodd" clip-rule="evenodd" d="M25.3053 21.7695L22.2298 18.6926L23.4316 17.4902L26.5071 20.5672L25.3053 21.7695Z" fill="#1F8CF4"/>
<path fill-rule="evenodd" clip-rule="evenodd" d="M22.3047 29.8148C22.3047 29.3454 22.6852 28.9648 23.1547 28.9648H30.1535C30.623 28.9648 31.0035 29.3454 31.0035 29.8148C31.0035 30.2843 30.623 30.6648 30.1535 30.6648H23.1547C22.6852 30.6648 22.3047 30.2843 22.3047 29.8148Z" fill="#1F8CF4"/>
</svg>
