<svg width="66" height="66" viewBox="0 0 66 66" fill="none" xmlns="http://www.w3.org/2000/svg">
<circle opacity="0.1" cx="33" cy="33" r="33" fill="#1F8CF4"/>
<path fill-rule="evenodd" clip-rule="evenodd" d="M30.5382 28.8216C29.0471 26.5848 25.6877 26.5637 24.1669 28.7815C23.2303 30.1474 23.3293 31.9494 24.4102 33.2104L32.2499 42.3567C32.6397 42.8115 33.3581 42.8115 33.7479 42.3567L41.5876 33.2104C42.6685 31.9494 42.7675 30.1474 41.8309 28.7815C40.3101 26.5637 36.9507 26.5848 35.4596 28.8216L34.0688 30.9077C33.8338 31.2603 33.431 31.4731 32.9989 31.4731C32.5668 31.4731 32.164 31.2603 31.929 30.9077L30.5382 28.8216ZM22.0452 27.4063C24.5832 23.7051 30.1895 23.7403 32.6781 27.4732L32.9989 27.9544L33.3197 27.4732C35.8083 23.7404 41.4146 23.7051 43.9526 27.4063C45.5156 29.6857 45.3504 32.6931 43.5465 34.7975L35.7069 43.9438C34.2976 45.588 31.7002 45.588 30.2909 43.9438L22.4513 34.7975C20.6474 32.6931 20.4822 29.6857 22.0452 27.4063Z" fill="#1F8CF4"/>
</svg>
