<svg width="64" height="63" viewBox="0 0 64 63" fill="none" xmlns="http://www.w3.org/2000/svg">
<rect width="64" height="63" rx="8" fill="#1F8CF4" fill-opacity="0.1"/>
<path fill-rule="evenodd" clip-rule="evenodd" d="M29.5402 26.8211C28.049 24.5843 24.6896 24.5632 23.1688 26.7811C22.2323 28.1469 22.3313 29.9489 23.4122 31.2099L31.2518 40.3562C31.6416 40.811 32.3601 40.811 32.7499 40.3562L40.5895 31.2099C41.6704 29.9489 41.7694 28.1469 40.8329 26.7811C39.3121 24.5632 35.9527 24.5844 34.4615 26.8211L33.0708 28.9072C32.8357 29.2598 32.433 29.4726 32.0009 29.4726C31.5687 29.4726 31.166 29.2598 30.9309 28.9072L29.5402 26.8211ZM21.0471 25.4059C23.5851 21.7046 29.1915 21.7399 31.68 25.4727L32.0009 25.9539L32.3217 25.4727C34.8102 21.7399 40.4166 21.7046 42.9546 25.4059C44.5176 27.6852 44.3523 30.6926 42.5485 32.7971L34.7088 41.9433C33.2996 43.5875 30.7022 43.5875 29.2929 41.9433L21.4532 32.7971C19.6494 30.6926 19.4841 27.6852 21.0471 25.4059Z" fill="#1F8CF4"/>
</svg>
