<svg width="24" height="24" viewBox="0 0 24 24" fill="none" xmlns="http://www.w3.org/2000/svg">
<path fill-rule="evenodd" clip-rule="evenodd" d="M11.1499 12C11.1499 12.4694 11.5305 12.85 11.9999 12.85L19.9999 12.85C20.4693 12.85 20.8499 12.4694 20.8499 12C20.8499 11.5305 20.4693 11.15 19.9999 11.15L11.9999 11.15C11.5305 11.15 11.1499 11.5305 11.1499 12Z" fill="#282828"/>
<path fill-rule="evenodd" clip-rule="evenodd" d="M17.4008 15.601C17.7327 15.9329 18.2709 15.9329 18.6029 15.601L20.9096 13.2943C21.632 12.5718 21.632 11.4005 20.9096 10.678L18.6147 8.38314C18.2828 8.05119 17.7446 8.05119 17.4126 8.38314C17.0807 8.71509 17.0807 9.25328 17.4126 9.58522L19.7075 11.8801C19.7661 11.9386 19.7661 12.0336 19.7075 12.0922L17.4008 14.3989C17.0688 14.7308 17.0688 15.269 17.4008 15.601Z" fill="#282828"/>
<path fill-rule="evenodd" clip-rule="evenodd" d="M14.1499 15C14.1499 16.7397 12.7396 18.15 10.9999 18.15H6.99985C5.26016 18.15 3.84985 16.7397 3.84985 15V8.49998C3.84985 6.76028 5.26016 5.34998 6.99985 5.34998H10.9999C12.7396 5.34998 14.1499 6.76028 14.1499 8.49997V9.67855C14.1499 10.148 14.5304 10.5285 14.9999 10.5285C15.4693 10.5285 15.8499 10.148 15.8499 9.67855V8.49997C15.8499 5.82139 13.6784 3.64998 10.9999 3.64998H6.99985C4.32127 3.64998 2.14985 5.82139 2.14985 8.49998V15C2.14985 17.6786 4.32127 19.85 6.99985 19.85H10.9999C13.6784 19.85 15.8499 17.6786 15.8499 15V14.3393C15.8499 13.8698 15.4693 13.4893 14.9999 13.4893C14.5304 13.4893 14.1499 13.8698 14.1499 14.3393V15Z" fill="#282828"/>
</svg>
