<svg width="40" height="40" viewBox="0 0 40 40" fill="none" xmlns="http://www.w3.org/2000/svg">
<path fill-rule="evenodd" clip-rule="evenodd" d="M11.9908 10.2556C13.238 7.22677 16.1897 5.25 19.4653 5.25H20.536C23.8116 5.25 26.7633 7.22677 28.0105 10.2556L28.0671 10.3929C28.9118 12.4445 29.2829 14.6603 29.1526 16.8751L29.0358 18.8608C28.9738 19.9155 29.2313 20.9643 29.7749 21.8702L30.6574 23.3412C31.1547 24.1699 31.4173 25.1181 31.4173 26.0845C31.4173 29.0294 29.03 31.4167 26.0852 31.4167H13.9161C10.9713 31.4167 8.58398 29.0294 8.58398 26.0845C8.58398 25.1181 8.84663 24.1699 9.34385 23.3412L10.2264 21.8702C10.77 20.9643 11.0275 19.9155 10.9655 18.8608L10.8487 16.8751C10.7184 14.6603 11.0895 12.4445 11.9342 10.3929L11.9908 10.2556ZM19.4653 8.08333C17.3378 8.08333 15.4207 9.36721 14.6107 11.3344L14.5542 11.4717C13.8717 13.1292 13.5719 14.9193 13.6771 16.7088L13.794 18.6945C13.8895 20.3183 13.4929 21.9332 12.656 23.328L11.7734 24.7989C11.5404 25.1873 11.4173 25.6316 11.4173 26.0845C11.4173 27.4646 12.5361 28.5833 13.9161 28.5833H26.0852C27.4652 28.5833 28.584 27.4646 28.584 26.0845C28.584 25.6316 28.4609 25.1873 28.2279 24.7989L27.3453 23.328C26.5084 21.9332 26.1118 20.3183 26.2073 18.6945L26.3242 16.7088C26.4294 14.9193 26.1296 13.1292 25.4471 11.4717L25.3906 11.3344C24.5806 9.36721 22.6635 8.08333 20.536 8.08333H19.4653Z" fill="#1F8CF4"/>
<path fill-rule="evenodd" clip-rule="evenodd" d="M15.25 33.3337C15.25 32.5513 15.8843 31.917 16.6667 31.917H23.3333C24.1157 31.917 24.75 32.5513 24.75 33.3337C24.75 34.1161 24.1157 34.7503 23.3333 34.7503H16.6667C15.8843 34.7503 15.25 34.1161 15.25 33.3337Z" fill="#1F8CF4"/>
</svg>
