<svg width="64" height="63" viewBox="0 0 64 63" fill="none" xmlns="http://www.w3.org/2000/svg">
<rect opacity="0.1" width="64" height="63" rx="8" fill="#FFD500"/>
<path fill-rule="evenodd" clip-rule="evenodd" d="M27.9985 37.4542C27.0554 37.4542 26.1365 37.753 25.3738 38.3077L24.171 39.1825C22.895 40.1105 23.5514 42.1292 25.1292 42.1292H38.8699C40.4477 42.1292 41.1041 40.1105 39.8281 39.1825L38.6253 38.3077C37.8626 37.753 36.9437 37.4542 36.0006 37.4542H27.9985ZM23.9573 36.36C25.1316 35.506 26.5464 35.0459 27.9985 35.0459H36.0006C37.4527 35.0459 38.8674 35.506 40.0418 36.36L41.2446 37.2348C44.4069 39.5347 42.7801 44.5376 38.8699 44.5376H25.1292C21.219 44.5376 19.5921 39.5347 22.7545 37.2348L23.9573 36.36Z" fill="#FFD500"/>
<path fill-rule="evenodd" clip-rule="evenodd" d="M31.9997 21.8712C29.5352 21.8712 27.5372 23.8692 27.5372 26.3337C27.5372 28.7983 29.5352 30.7962 31.9997 30.7962C34.4643 30.7962 36.4622 28.7983 36.4622 26.3337C36.4622 23.8692 34.4643 21.8712 31.9997 21.8712ZM25.1289 26.3337C25.1289 22.5391 28.2051 19.4629 31.9997 19.4629C35.7944 19.4629 38.8706 22.5391 38.8706 26.3337C38.8706 30.1284 35.7944 33.2046 31.9997 33.2046C28.2051 33.2046 25.1289 30.1284 25.1289 26.3337Z" fill="#FFD500"/>
</svg>
