<svg width="66" height="66" viewBox="0 0 66 66" fill="none" xmlns="http://www.w3.org/2000/svg">
<circle opacity="0.1" cx="33" cy="33" r="33" fill="#FFD500"/>
<path fill-rule="evenodd" clip-rule="evenodd" d="M29.0004 38.4542C28.0573 38.4542 27.1385 38.753 26.3757 39.3077L25.173 40.1825C23.8969 41.1105 24.5534 43.1292 26.1312 43.1292H39.8718C41.4496 43.1292 42.1061 41.1105 40.83 40.1825L39.6272 39.3077C38.8645 38.753 37.9456 38.4542 37.0025 38.4542H29.0004ZM24.9592 37.36C26.1336 36.506 27.5483 36.0459 29.0004 36.0459H37.0025C38.4546 36.0459 39.8694 36.506 41.0438 37.36L42.2465 38.2348C45.4089 40.5347 43.782 45.5376 39.8718 45.5376H26.1312C22.2209 45.5376 20.5941 40.5347 23.7564 38.2348L24.9592 37.36Z" fill="#FFD500"/>
<path fill-rule="evenodd" clip-rule="evenodd" d="M32.9997 22.8707C30.5352 22.8707 28.5372 24.8687 28.5372 27.3332C28.5372 29.7978 30.5352 31.7957 32.9997 31.7957C35.4643 31.7957 37.4622 29.7978 37.4622 27.3332C37.4622 24.8687 35.4643 22.8707 32.9997 22.8707ZM26.1289 27.3332C26.1289 23.5386 29.2051 20.4624 32.9997 20.4624C36.7944 20.4624 39.8706 23.5386 39.8706 27.3332C39.8706 31.1279 36.7944 34.2041 32.9997 34.2041C29.2051 34.2041 26.1289 31.1279 26.1289 27.3332Z" fill="#FFD500"/>
</svg>
