<svg width="64" height="63" viewBox="0 0 64 63" fill="none" xmlns="http://www.w3.org/2000/svg">
<rect opacity="0.1" width="64" height="63" rx="8" fill="#FFD500"/>
<path fill-rule="evenodd" clip-rule="evenodd" d="M29.5066 23.0248C30.2912 20.6102 33.7072 20.6102 34.4918 23.0248L35.6889 26.7093C35.7174 26.7969 35.799 26.8561 35.891 26.8561H39.7651C42.304 26.8561 43.3596 30.105 41.3056 31.5973L38.1714 33.8744C38.0969 33.9285 38.0657 34.0244 38.0942 34.112L39.2914 37.7965C40.0759 40.2111 37.3123 42.219 35.2583 40.7267L32.1241 38.4495C32.0496 38.3954 31.9488 38.3954 31.8743 38.4495L28.7401 40.7267C26.6861 42.219 23.9225 40.2111 24.707 37.7965L25.9042 34.112C25.9326 34.0244 25.9015 33.9285 25.827 33.8744L22.6928 31.5973C20.6388 30.105 21.6944 26.8561 24.2333 26.8561H28.1074C28.1994 26.8561 28.281 26.7969 28.3095 26.7093L29.5066 23.0248ZM31.8704 23.6578C31.8502 23.6715 31.8203 23.6977 31.7971 23.769L30.5999 27.4535C30.2491 28.5334 29.2428 29.2645 28.1074 29.2645H24.2333C24.1583 29.2645 24.1242 29.2848 24.1048 29.2998C24.0782 29.3204 24.0486 29.3577 24.0312 29.4113C24.0138 29.4649 24.0158 29.5125 24.0252 29.5448C24.0321 29.5683 24.0477 29.6048 24.1084 29.6489L27.2426 31.926C28.1612 32.5934 28.5455 33.7764 28.1947 34.8562L26.9975 38.5407C26.9743 38.612 26.9831 38.6508 26.9914 38.6738C27.0028 38.7055 27.0291 38.7452 27.0747 38.7783C27.1202 38.8114 27.1661 38.8242 27.1998 38.8252C27.2243 38.8259 27.2638 38.8223 27.3245 38.7783L30.4587 36.5011C31.3773 35.8338 32.6211 35.8338 33.5397 36.5011L36.6739 38.7783C36.7346 38.8223 36.7741 38.8259 36.7986 38.8252C36.8322 38.8242 36.8781 38.8114 36.9237 38.7783C36.9693 38.7452 36.9956 38.7055 37.007 38.6738C37.0153 38.6508 37.0241 38.612 37.0009 38.5407L35.8037 34.8562C35.4529 33.7764 35.8372 32.5934 36.7558 31.926L39.89 29.6489C39.9507 29.6048 39.9663 29.5683 39.9732 29.5448C39.9826 29.5125 39.9846 29.4649 39.9672 29.4113C39.9498 29.3577 39.9202 29.3204 39.8936 29.2998C39.8742 29.2848 39.8401 29.2645 39.7651 29.2645H35.891C34.7556 29.2645 33.7493 28.5334 33.3985 27.4535L32.2013 23.769C32.1781 23.6977 32.1482 23.6715 32.128 23.6578C32.1002 23.6388 32.0555 23.6222 31.9992 23.6222C31.9429 23.6222 31.8982 23.6388 31.8704 23.6578Z" fill="#FFD500"/>
</svg>
