<svg width="13" height="13" viewBox="0 0 13 13" fill="none" xmlns="http://www.w3.org/2000/svg">
<path d="M10.3459 7.682C10.1776 7.84513 10.1002 8.08105 10.1386 8.31242L10.7164 11.51C10.7651 11.781 10.6507 12.0553 10.4239 12.2119C10.2016 12.3744 9.90592 12.3939 9.66351 12.2639L6.78503 10.7626C6.68495 10.7093 6.57381 10.6807 6.46008 10.6775H6.28395C6.22286 10.6866 6.16306 10.7061 6.10847 10.7359L3.22935 12.2444C3.08702 12.3159 2.92584 12.3412 2.76791 12.3159C2.38316 12.2431 2.12644 11.8765 2.18948 11.4899L2.76791 8.29227C2.80625 8.05895 2.72891 7.82173 2.56058 7.656L0.213741 5.3813C0.017467 5.19087 -0.0507741 4.90491 0.0389142 4.64689C0.126003 4.38953 0.348274 4.2017 0.616689 4.15946L3.84677 3.69087C4.09243 3.66552 4.30821 3.51604 4.41869 3.29507L5.84201 0.376951C5.8758 0.311959 5.91935 0.252167 5.97199 0.201474L6.03048 0.15598C6.06103 0.122184 6.09612 0.0942377 6.13512 0.0714907L6.20596 0.0454941L6.31644 0H6.59006C6.83443 0.0253467 7.04955 0.171578 7.16198 0.389949L8.60415 3.29507C8.70813 3.50759 8.91026 3.65512 9.14357 3.69087L12.3737 4.15946C12.6466 4.19845 12.8747 4.38693 12.9651 4.64689C13.0502 4.90751 12.9768 5.19347 12.7766 5.3813L10.3459 7.682Z" fill="#FFD500"/>
</svg>
