<svg width="66" height="66" viewBox="0 0 66 66" fill="none" xmlns="http://www.w3.org/2000/svg">
<circle opacity="0.1" cx="33" cy="33" r="33" fill="#FFD500"/>
<path fill-rule="evenodd" clip-rule="evenodd" d="M30.5086 24.0243C31.2931 21.6097 34.7092 21.6097 35.4937 24.0243L36.6909 27.7088C36.7193 27.7964 36.8009 27.8556 36.893 27.8556H40.7671C43.3059 27.8556 44.3615 31.1045 42.3076 32.5968L39.1733 34.8739C39.0989 34.928 39.0677 35.0239 39.0962 35.1115L40.2933 38.796C41.0779 41.2106 38.3142 43.2185 36.2603 41.7262L33.1261 39.449C33.0516 39.3949 32.9507 39.3949 32.8762 39.449L29.742 41.7262C27.6881 43.2185 24.9244 41.2106 25.709 38.796L26.9061 35.1115C26.9346 35.0239 26.9034 34.928 26.829 34.8739L23.6947 32.5968C21.6408 31.1045 22.6964 27.8556 25.2352 27.8556H29.1093C29.2014 27.8556 29.283 27.7964 29.3114 27.7088L30.5086 24.0243ZM32.8723 24.6573C32.8521 24.6711 32.8222 24.6972 32.799 24.7685L31.6019 28.453C31.251 29.5329 30.2447 30.264 29.1093 30.264H25.2352C25.1603 30.264 25.1261 30.2843 25.1068 30.2993C25.0801 30.3199 25.0505 30.3573 25.0331 30.4108C25.0157 30.4644 25.0177 30.512 25.0272 30.5443C25.034 30.5678 25.0497 30.6043 25.1103 30.6484L28.2445 32.9255C29.1631 33.5929 29.5475 34.7759 29.1966 35.8557L27.9994 39.5402C27.9763 39.6115 27.9851 39.6503 27.9933 39.6733C28.0047 39.705 28.0311 39.7447 28.0766 39.7778C28.1222 39.8109 28.1681 39.8237 28.2018 39.8247C28.2262 39.8255 28.2658 39.8219 28.3265 39.7778L31.4607 37.5006C32.3792 36.8333 33.6231 36.8333 34.5416 37.5006L37.6758 39.7778C37.7365 39.8219 37.7761 39.8255 37.8005 39.8247C37.8342 39.8237 37.8801 39.8109 37.9257 39.7778C37.9712 39.7447 37.9976 39.705 38.009 39.6733C38.0172 39.6503 38.026 39.6115 38.0029 39.5402L36.8057 35.8557C36.4548 34.7759 36.8392 33.5929 37.7578 32.9255L40.892 30.6484C40.9526 30.6043 40.9683 30.5678 40.9751 30.5443C40.9846 30.512 40.9866 30.4644 40.9692 30.4108C40.9518 30.3573 40.9222 30.3199 40.8955 30.2993C40.8762 30.2843 40.842 30.264 40.7671 30.264H36.893C35.7576 30.264 34.7513 29.5329 34.4004 28.453L33.2032 24.7685C33.1801 24.6972 33.1502 24.6711 33.13 24.6573C33.1021 24.6383 33.0575 24.6217 33.0011 24.6217C32.9448 24.6217 32.9002 24.6383 32.8723 24.6573Z" fill="#FFD500"/>
</svg>
