<svg width="34" height="34" viewBox="0 0 34 34" fill="none" xmlns="http://www.w3.org/2000/svg">
<path fill-rule="evenodd" clip-rule="evenodd" d="M7.78133 11.6006C7.42608 9.16462 9.31481 6.98047 11.7766 6.98047H22.8532C25.315 6.98047 27.2037 9.16462 26.8484 11.6006L24.7366 26.0821C24.4473 28.0659 22.7461 29.537 20.7413 29.537H13.8885C11.8837 29.537 10.1825 28.0659 9.89321 26.0821L7.78133 11.6006ZM11.7766 9.3888C10.7832 9.3888 10.0211 10.2701 10.1645 11.2531L12.2763 25.7346C12.3931 26.535 13.0795 27.1286 13.8885 27.1286H20.7413C21.5503 27.1286 22.2367 26.535 22.3534 25.7345L24.4653 11.2531C24.6087 10.2701 23.8465 9.3888 22.8532 9.3888H11.7766Z" fill="#FFD500"/>
<path fill-rule="evenodd" clip-rule="evenodd" d="M13.5918 4.24909C13.5918 3.58405 14.1309 3.04492 14.796 3.04492H19.833C20.498 3.04492 21.0372 3.58405 21.0372 4.24909C21.0372 4.91413 20.498 5.45325 19.833 5.45325H14.796C14.1309 5.45325 13.5918 4.91413 13.5918 4.24909Z" fill="#FFD500"/>
<path fill-rule="evenodd" clip-rule="evenodd" d="M13.4164 14.8976C13.8811 14.8312 14.3116 15.1541 14.378 15.6188L15.6373 24.4336C15.7037 24.8983 15.3808 25.3289 14.916 25.3953C14.4513 25.4617 14.0208 25.1388 13.9544 24.674L12.6951 15.8592C12.6287 15.3945 12.9516 14.9639 13.4164 14.8976Z" fill="#FFD500"/>
<path fill-rule="evenodd" clip-rule="evenodd" d="M19.7126 25.3956C19.2478 25.3292 18.9249 24.8987 18.9913 24.4339L20.2506 15.6191C20.317 15.1544 20.7475 14.8315 21.2122 14.8979C21.677 14.9643 21.9999 15.3948 21.9335 15.8595L20.6742 24.6743C20.6078 25.1391 20.1773 25.462 19.7126 25.3956Z" fill="#FFD500"/>
<path fill-rule="evenodd" clip-rule="evenodd" d="M17.3148 25.4043C16.8454 25.4043 16.4648 25.0237 16.4648 24.5543V15.7395C16.4648 15.27 16.8454 14.8895 17.3148 14.8895C17.7843 14.8895 18.1648 15.27 18.1648 15.7395V24.5543C18.1648 25.0237 17.7843 25.4043 17.3148 25.4043Z" fill="#FFD500"/>
</svg>
