<svg width="40" height="40" viewBox="0 0 40 40" fill="none" xmlns="http://www.w3.org/2000/svg">
<path fill-rule="evenodd" clip-rule="evenodd" d="M20 8.08333C13.4186 8.08333 8.08333 13.4186 8.08333 20C8.08333 26.5814 13.4186 31.9167 20 31.9167C26.5814 31.9167 31.9167 26.5814 31.9167 20C31.9167 13.4186 26.5814 8.08333 20 8.08333ZM5.25 20C5.25 11.8538 11.8538 5.25 20 5.25C28.1462 5.25 34.75 11.8538 34.75 20C34.75 28.1462 28.1462 34.75 20 34.75C11.8538 34.75 5.25 28.1462 5.25 20Z" fill="#FD4E3B"/>
<path fill-rule="evenodd" clip-rule="evenodd" d="M10.3791 10.3787C10.9324 9.82544 11.8294 9.82544 12.3826 10.3787L29.0493 27.0454C29.6025 27.5986 29.6025 28.4956 29.0493 29.0488C28.496 29.6021 27.599 29.6021 27.0458 29.0488L10.3791 12.3822C9.82588 11.8289 9.82588 10.9319 10.3791 10.3787Z" fill="#FD4E3B"/>
</svg>
