<svg width="49" height="49" viewBox="0 0 49 49" fill="none" xmlns="http://www.w3.org/2000/svg">
<circle cx="24.5" cy="24.5" r="24.5" fill="#1F8CF4" fill-opacity="0.1"/>
<path fill-rule="evenodd" clip-rule="evenodd" d="M15.1504 23.0004C15.1504 20.3218 17.3218 18.1504 20.0004 18.1504H24.6004C27.279 18.1504 29.4504 20.3218 29.4504 23.0004V27.6004C29.4504 30.279 27.279 32.4504 24.6004 32.4504H20.0004C17.3218 32.4504 15.1504 30.279 15.1504 27.6004V23.0004ZM20.0004 19.8504C18.2607 19.8504 16.8504 21.2607 16.8504 23.0004V27.6004C16.8504 29.3401 18.2607 30.7504 20.0004 30.7504H24.6004C26.3401 30.7504 27.7504 29.3401 27.7504 27.6004V23.0004C27.7504 21.2607 26.3401 19.8504 24.6004 19.8504H20.0004Z" fill="#1F8CF4"/>
<path fill-rule="evenodd" clip-rule="evenodd" d="M33.15 24.0363C33.15 23.1814 32.2503 22.6254 31.4857 23.0077L30.0857 23.7077C29.6961 23.9025 29.45 24.3007 29.45 24.7363V25.8642C29.45 26.2997 29.6961 26.6979 30.0857 26.8927L31.4857 27.5927C32.2503 27.9751 33.15 27.419 33.15 26.5642V24.0363ZM30.7254 21.4872C32.6204 20.5397 34.85 21.9177 34.85 24.0363V26.5642C34.85 28.6828 32.6204 30.0608 30.7254 29.1133L29.3254 28.4133C28.3599 27.9305 27.75 26.9437 27.75 25.8642V24.7363C27.75 23.6568 28.3599 22.6699 29.3254 22.1872L30.7254 21.4872Z" fill="#1F8CF4"/>
</svg>
