<svg width="64" height="63" viewBox="0 0 64 63" fill="none" xmlns="http://www.w3.org/2000/svg">
<rect width="64" height="63" rx="8" fill="#1F8CF4" fill-opacity="0.1"/>
<path fill-rule="evenodd" clip-rule="evenodd" d="M18.7246 27.1247C18.7246 23.2184 21.9817 20.0518 25.9996 20.0518H37.9996C42.0175 20.0518 45.2746 23.2184 45.2746 27.1247V35.8747C45.2746 39.7809 42.0175 42.9476 37.9996 42.9476H25.9996C21.9817 42.9476 18.7246 39.7809 18.7246 35.8747V27.1247ZM25.9996 22.5309C23.3901 22.5309 21.2746 24.5876 21.2746 27.1247V35.8747C21.2746 38.4117 23.3901 40.4684 25.9996 40.4684H37.9996C40.6092 40.4684 42.7246 38.4117 42.7246 35.8747V27.1247C42.7246 24.5876 40.6092 22.5309 37.9996 22.5309H25.9996Z" fill="#1F8CF4"/>
<path d="M41 31.4993C41 32.3048 40.3284 32.9577 39.5 32.9577C38.6716 32.9577 38 32.3048 38 31.4993C38 30.6939 38.6716 30.041 39.5 30.041C40.3284 30.041 41 30.6939 41 31.4993Z" fill="#1F8CF4"/>
<path fill-rule="evenodd" clip-rule="evenodd" d="M33.7246 30.041C33.7246 27.7456 35.6386 25.8848 37.9996 25.8848H43.9996C44.7038 25.8848 45.2746 26.4397 45.2746 27.1243V35.8743C45.2746 36.559 44.7038 37.1139 43.9996 37.1139H37.9996C35.6386 37.1139 33.7246 35.2531 33.7246 32.9577V30.041ZM37.9996 28.3639C37.0469 28.3639 36.2746 29.1148 36.2746 30.041V32.9577C36.2746 33.8839 37.0469 34.6348 37.9996 34.6348H42.7246V28.3639H37.9996Z" fill="#1F8CF4"/>
</svg>
