<svg width="66" height="66" viewBox="0 0 66 66" fill="none" xmlns="http://www.w3.org/2000/svg">
<circle opacity="0.1" cx="33" cy="33" r="33" fill="#1F8CF4"/>
<path fill-rule="evenodd" clip-rule="evenodd" d="M19.7266 28.1252C19.7266 24.2189 22.9837 21.0522 27.0016 21.0522H39.0016C43.0194 21.0522 46.2766 24.2189 46.2766 28.1252V36.8752C46.2766 40.7814 43.0194 43.9481 39.0016 43.9481H27.0016C22.9837 43.9481 19.7266 40.7814 19.7266 36.8752V28.1252ZM27.0016 23.5314C24.392 23.5314 22.2766 25.5881 22.2766 28.1252V36.8752C22.2766 39.4122 24.392 41.4689 27.0016 41.4689H39.0016C41.6111 41.4689 43.7266 39.4122 43.7266 36.8752V28.1252C43.7266 25.5881 41.6111 23.5314 39.0016 23.5314H27.0016Z" fill="#1F8CF4"/>
<path d="M42 32.5003C42 33.3057 41.3284 33.9587 40.5 33.9587C39.6716 33.9587 39 33.3057 39 32.5003C39 31.6949 39.6716 31.042 40.5 31.042C41.3284 31.042 42 31.6949 42 32.5003Z" fill="#1F8CF4"/>
<path fill-rule="evenodd" clip-rule="evenodd" d="M34.7266 31.042C34.7266 28.7466 36.6405 26.8857 39.0016 26.8857H45.0016C45.7057 26.8857 46.2766 27.4407 46.2766 28.1253V36.8753C46.2766 37.5599 45.7057 38.1149 45.0016 38.1149H39.0016C36.6405 38.1149 34.7266 36.2541 34.7266 33.9587V31.042ZM39.0016 29.3649C38.0489 29.3649 37.2766 30.1158 37.2766 31.042V33.9587C37.2766 34.8849 38.0489 35.6357 39.0016 35.6357H43.7266V29.3649H39.0016Z" fill="#1F8CF4"/>
</svg>
